<svg width="30px" height="42px" viewBox="0 0 30 42" version="1.1" 
    xmlns="http://www.w3.org/2000/svg" 
    xmlns:xlink="http://www.w3.org/1999/xlink">
    <!-- Generator: Sketch 49.3 (51167) - http://www.bohemiancoding.com/sketch -->
    <desc>Created with Sketch.</desc>
    <defs></defs>
    <g id="Browser" stroke="none" stroke-width="1" fill="none" fill-rule="evenodd">
        <g id="page-simple" transform="translate(-237.000000, -683.000000)" fill="#000000">
            <g id="keyboard-list" transform="translate(66.000000, 671.000000)">
                <g id="control" transform="translate(130.000000, 0.000000)">
                    <g id="key-control" transform="translate(41.000000, 12.000000)">
                        <g id="keyboard-simple">
                            <path d="M29,0.5 L1,0.5 C0.724,0.5 0.5,0.689714286 0.5,0.923469388 L0.5,41.5765306 C0.5,41.8102857 0.724,42 1,42 L29,42 C29.276,42 29.5,41.8102857 29.5,41.5765306 L29.5,0.923469388 C29.5,0.689714286 29.276,0.5 29,0.5 Z M28.5,41.1530612 L1.5,41.1530612 L1.5,1.34693878 L28.5,1.34693878 L28.5,41.1530612 Z" id="Shape" fill-rule="nonzero"></path>
                            <path d="M7,37.5 L9,37.5 C9.276,37.5 9.5,37.276 9.5,37 C9.5,36.724 9.276,36.5 9,36.5 L7,36.5 C6.724,36.5 6.5,36.724 6.5,37 C6.5,37.276 6.724,37.5 7,37.5 Z" id="Shape" fill-rule="nonzero"></path>
                            <path d="M21,37.5 L23,37.5 C23.276,37.5 23.5,37.276 23.5,37 C23.5,36.724 23.276,36.5 23,36.5 L21,36.5 C20.724,36.5 20.5,36.724 20.5,37 C20.5,37.276 20.724,37.5 21,37.5 Z" id="Shape" fill-rule="nonzero"></path>
                            <path d="M16,36.5 L14,36.5 C13.724,36.5 13.5,36.724 13.5,37 C13.5,37.276 13.724,37.5 14,37.5 L16,37.5 C16.276,37.5 16.5,37.276 16.5,37 C16.5,36.724 16.276,36.5 16,36.5 Z" id="Shape" fill-rule="nonzero"></path>
                            <path d="M7,32.5 L9,32.5 C9.276,32.5 9.5,32.276 9.5,32 C9.5,31.724 9.276,31.5 9,31.5 L7,31.5 C6.724,31.5 6.5,31.724 6.5,32 C6.5,32.276 6.724,32.5 7,32.5 Z" id="Shape" fill-rule="nonzero"></path>
                            <path d="M21,32.5 L23,32.5 C23.276,32.5 23.5,32.276 23.5,32 C23.5,31.724 23.276,31.5 23,31.5 L21,31.5 C20.724,31.5 20.5,31.724 20.5,32 C20.5,32.276 20.724,32.5 21,32.5 Z" id="Shape" fill-rule="nonzero"></path>
                            <path d="M14,32.5 L16,32.5 C16.276,32.5 16.5,32.276 16.5,32 C16.5,31.724 16.276,31.5 16,31.5 L14,31.5 C13.724,31.5 13.5,31.724 13.5,32 C13.5,32.276 13.724,32.5 14,32.5 Z" id="Shape" fill-rule="nonzero"></path>
                            <path d="M7,27.5 L9,27.5 C9.276,27.5 9.5,27.276 9.5,27 C9.5,26.724 9.276,26.5 9,26.5 L7,26.5 C6.724,26.5 6.5,26.724 6.5,27 C6.5,27.276 6.724,27.5 7,27.5 Z" id="Shape" fill-rule="nonzero"></path>
                            <path d="M21,27.5 L23,27.5 C23.276,27.5 23.5,27.276 23.5,27 C23.5,26.724 23.276,26.5 23,26.5 L21,26.5 C20.724,26.5 20.5,26.724 20.5,27 C20.5,27.276 20.724,27.5 21,27.5 Z" id="Shape" fill-rule="nonzero"></path>
                            <path d="M14,27.5 L16,27.5 C16.276,27.5 16.5,27.276 16.5,27 C16.5,26.724 16.276,26.5 16,26.5 L14,26.5 C13.724,26.5 13.5,26.724 13.5,27 C13.5,27.276 13.724,27.5 14,27.5 Z" id="Shape" fill-rule="nonzero"></path>
                            <path d="M13.353,7.354 L15,5.707 L16.646,7.353 C16.744,7.451 16.872,7.5 17,7.5 C17.128,7.5 17.256,7.451 17.354,7.354 C17.549,7.159 17.549,6.842 17.354,6.647 L15.354,4.647 C15.159,4.452 14.842,4.452 14.647,4.647 L12.647,6.647 C12.452,6.842 12.452,7.159 12.647,7.354 C12.842,7.549 13.158,7.549 13.353,7.354 Z" id="Shape" fill-rule="nonzero"></path>
                            <path d="M16.646,18.646 L15,20.293 L13.354,18.647 C13.159,18.452 12.842,18.452 12.647,18.647 C12.452,18.842 12.452,19.159 12.647,19.354 L14.647,21.354 C14.744,21.451 14.872,21.5 15,21.5 C15.128,21.5 15.256,21.451 15.354,21.354 L17.354,19.354 C17.549,19.159 17.549,18.842 17.354,18.647 C17.159,18.452 16.842,18.451 16.646,18.646 Z" id="Shape" fill-rule="nonzero"></path>
                            <path d="M20.646,15.354 C20.744,15.451 20.872,15.5 21,15.5 C21.128,15.5 21.256,15.451 21.354,15.354 L23.354,13.354 C23.549,13.159 23.549,12.842 23.354,12.647 L21.354,10.647 C21.159,10.452 20.842,10.452 20.647,10.647 C20.452,10.842 20.452,11.159 20.647,11.354 L22.293,13 L20.647,14.646 C20.451,14.842 20.451,15.158 20.646,15.354 Z" id="Shape" fill-rule="nonzero"></path>
                            <path d="M8.646,15.354 C8.744,15.451 8.872,15.5 9,15.5 C9.128,15.5 9.256,15.451 9.354,15.354 C9.549,15.159 9.549,14.842 9.354,14.647 L7.707,13 L9.353,11.354 C9.548,11.159 9.548,10.842 9.353,10.647 C9.158,10.452 8.841,10.452 8.646,10.647 L6.646,12.647 C6.451,12.842 6.451,13.159 6.646,13.354 L8.646,15.354 Z" id="Shape" fill-rule="nonzero"></path>
                        </g>
                    </g>
                </g>
            </g>
        </g>
    </g>
</svg>