<svg width="54px" height="50px" viewBox="0 0 54 50" version="1.1" 
    xmlns="http://www.w3.org/2000/svg" 
    xmlns:xlink="http://www.w3.org/1999/xlink">
    <!-- Generator: Sketch 49.3 (51167) - http://www.bohemiancoding.com/sketch -->
    <desc>Created with Sketch.</desc>
    <defs></defs>
    <g id="Browser" stroke="none" stroke-width="1" fill="none" fill-rule="evenodd">
        <g id="page-simple" transform="translate(-97.000000, -683.000000)" fill="#000000">
            <g id="keyboard-list" transform="translate(66.000000, 671.000000)">
                <g id="trackpad">
                    <g transform="translate(31.000000, 12.000000)" id="Shape">
                        <g>
                            <path d="M53,0.5 L1,0.5 C0.724,0.5 0.5,0.724 0.5,1 L0.5,41 C0.5,41.276 0.724,41.5 1,41.5 L30.525,41.5 C30.786,45.953 34.482,49.5 39,49.5 C43.518,49.5 47.214,45.953 47.475,41.5 L53,41.5 C53.276,41.5 53.5,41.276 53.5,41 L53.5,1 C53.5,0.724 53.276,0.5 53,0.5 Z M52.5,1.5 L52.5,32.5 L39.5,32.5 L39.5,27 C39.5,25.622 38.379,24.5 37,24.5 C35.621,24.5 34.5,25.622 34.5,27 L34.5,32.5 L1.5,32.5 L1.5,1.5 L52.5,1.5 Z M30.5,37 L30.5,40.5 L27.5,40.5 L27.5,33.5 L34.5,33.5 L34.5,35.001 C34.082,34.687 33.562,34.5 33,34.5 C31.621,34.5 30.5,35.621 30.5,37 Z M1.5,33.5 L26.5,33.5 L26.5,40.5 L1.5,40.5 L1.5,33.5 Z M39,48.5 C34.864,48.5 31.5,45.136 31.5,41 L31.5,37 C31.5,36.173 32.173,35.5 33,35.5 C33.827,35.5 34.5,36.173 34.5,37 L34.5,41 C34.5,41.276 34.724,41.5 35,41.5 C35.276,41.5 35.5,41.276 35.5,41 L35.5,37 L35.5,27 C35.5,26.173 36.173,25.5 37,25.5 C37.827,25.5 38.5,26.173 38.5,27 L38.5,37 C38.5,37.276 38.724,37.5 39,37.5 L46.5,37.5 L46.5,41 C46.5,45.136 43.136,48.5 39,48.5 Z M47.5,40.5 L47.5,37 C47.5,36.724 47.276,36.5 47,36.5 L39.5,36.5 L39.5,33.5 L52.5,33.5 L52.5,40.5 L47.5,40.5 Z" fill-rule="nonzero"></path>
                            <path d="M48.646,7.354 C48.744,7.451 48.872,7.5 49,7.5 C49.128,7.5 49.256,7.451 49.354,7.354 C49.549,7.159 49.549,6.842 49.354,6.647 L47.354,4.647 C47.159,4.452 46.842,4.452 46.647,4.647 C46.452,4.842 46.452,5.159 46.647,5.354 L48.646,7.354 Z" fill-rule="nonzero"></path>
                            <path d="M42.646,7.354 C42.744,7.451 42.872,7.5 43,7.5 C43.128,7.5 43.256,7.451 43.354,7.354 C43.549,7.159 43.549,6.842 43.354,6.647 L41.354,4.647 C41.159,4.452 40.842,4.452 40.647,4.647 C40.452,4.842 40.452,5.159 40.647,5.354 L42.646,7.354 Z" fill-rule="nonzero"></path>
                            <path d="M48.646,13.354 C48.744,13.451 48.872,13.5 49,13.5 C49.128,13.5 49.256,13.451 49.354,13.354 C49.549,13.159 49.549,12.842 49.354,12.647 L45.354,8.647 C45.159,8.452 44.842,8.452 44.647,8.647 C44.452,8.842 44.452,9.159 44.647,9.354 L48.646,13.354 Z" fill-rule="nonzero"></path>
                        </g>
                    </g>
                </g>
            </g>
        </g>
    </g>
</svg>