<svg width="76px" height="76px" viewBox="0 0 76 76" version="1.1" 
    xmlns="http://www.w3.org/2000/svg" 
    xmlns:xlink="http://www.w3.org/1999/xlink">
    <!-- Generator: Sketch 49.3 (51167) - http://www.bohemiancoding.com/sketch -->
    <desc>Created with Sketch.</desc>
    <defs></defs>
    <g id="Browser" stroke="none" stroke-width="1" fill="none" fill-rule="evenodd">
        <g id="page-simple" transform="translate(-151.000000, -79.000000)" fill="#000000" fill-rule="nonzero">
            <g id="control" transform="translate(52.000000, 79.000000)">
                <g id="direction-control" transform="translate(15.000000, 0.000000)">
                    <g id="up" transform="translate(84.000000, 0.000000)">
                        <path d="M63.831656,76 L12.168344,76 C5.45837145,76 0,70.5416285 0,63.831656 L0,12.168344 C0,5.45837145 5.45837145,0 12.168344,0 L63.831656,0 C70.5416285,0 76,5.45837145 76,12.168344 L76,63.831656 C76,70.5416285 70.5416285,76 63.831656,76 Z M12.168344,3.47666972 C7.37749314,3.47666972 3.47666972,7.37749314 3.47666972,12.168344 L3.47666972,63.831656 C3.47666972,68.6225069 7.37749314,72.5233303 12.168344,72.5233303 L63.831656,72.5233303 C68.6259835,72.5233303 72.5233303,68.6225069 72.5233303,63.831656 L72.5233303,12.168344 C72.5233303,7.37749314 68.6259835,3.47666972 63.831656,3.47666972 L12.168344,3.47666972 Z" id="Shape"></path>
                        <path d="M34.3796658,42.996557 C32.4040509,42.996557 31.4701239,41.5918229 32.3070662,39.877221 L36.9767013,30.2885337 C37.8136436,28.5704888 39.1822059,28.5704888 40.0191482,30.2885337 L44.6923754,39.880664 C45.5293177,41.5952659 44.5989827,43 42.6233678,43 L34.3796658,43 L34.3796658,42.996557 Z" id="Shape"></path>
                    </g>
                </g>
            </g>
        </g>
    </g>
</svg>